<svg width="53" height="53" viewBox="0 0 53 53" fill="none" xmlns="http://www.w3.org/2000/svg">
<g clip-path="url(#clip0_60_5899)">
<path d="M46.7222 6.27783H6.2778C5.51162 6.27783 4.77682 6.5822 4.23505 7.12397C3.69328 7.66574 3.38892 8.40054 3.38892 9.16672V43.8334C3.38892 44.5996 3.69328 45.3344 4.23505 45.8761C4.77682 46.4179 5.51162 46.7223 6.2778 46.7223H46.7222C47.4884 46.7223 48.2232 46.4179 48.765 45.8761C49.3068 45.3344 49.6111 44.5996 49.6111 43.8334V9.16672C49.6111 8.40054 49.3068 7.66574 48.765 7.12397C48.2232 6.5822 47.4884 6.27783 46.7222 6.27783ZM6.2778 43.8334V9.16672H46.7222V43.8334H6.2778Z" fill="#008F18"/>
<path d="M13.3845 20.7222C14.2415 20.7222 15.0793 20.4681 15.792 19.9919C16.5046 19.5158 17.06 18.839 17.388 18.0472C17.7159 17.2554 17.8018 16.3841 17.6346 15.5435C17.4673 14.7029 17.0546 13.9308 16.4486 13.3247C15.8426 12.7187 15.0705 12.306 14.2299 12.1388C13.3893 11.9716 12.518 12.0574 11.7262 12.3854C10.9344 12.7134 10.2576 13.2688 9.78145 13.9814C9.30529 14.694 9.05115 15.5318 9.05115 16.3889C9.05115 17.5381 9.50769 18.6403 10.3204 19.453C11.133 20.2657 12.2352 20.7222 13.3845 20.7222ZM13.3845 14.0778C13.8422 14.0749 14.2904 14.208 14.6724 14.4602C15.0543 14.7124 15.3528 15.0724 15.5299 15.4944C15.7071 15.9164 15.7549 16.3816 15.6674 16.8308C15.5798 17.2801 15.3609 17.6932 15.0382 18.0179C14.7156 18.3426 14.3038 18.5641 13.8551 18.6545C13.4064 18.7448 12.941 18.6999 12.5179 18.5254C12.0947 18.3509 11.7329 18.0547 11.4783 17.6744C11.2237 17.294 11.0878 16.8466 11.0878 16.3889C11.0916 15.7809 11.3348 15.199 11.7647 14.7691C12.1946 14.3392 12.7765 14.096 13.3845 14.0922V14.0778Z" fill="#008F18"/>
<path d="M33.4045 22.7012L25.6045 30.5012L19.8267 24.7234C19.5561 24.4544 19.19 24.3034 18.8084 24.3034C18.4268 24.3034 18.0607 24.4544 17.79 24.7234L9.05115 33.5778V37.6656L18.8589 27.8578L23.6111 32.5378L18.1945 37.9545H22.1667L34.3723 25.7489L43.8334 35.1667V31.0934L35.4411 22.7012C35.1705 22.4321 34.8044 22.2811 34.4228 22.2811C34.0412 22.2811 33.6751 22.4321 33.4045 22.7012Z" fill="#008F18"/>
</g>
<defs>
<clipPath id="clip0_60_5899">
<rect width="52" height="52" fill="white" transform="translate(0.5 0.5)"/>
</clipPath>
</defs>
</svg>
