<svg width="36" height="36" viewBox="0 0 36 36" fill="none" xmlns="http://www.w3.org/2000/svg">
<path d="M7.875 16.875H30.375C30.6734 16.875 30.9595 16.9935 31.1705 17.2045C31.3815 17.4155 31.5 17.7016 31.5 18C31.5 18.2984 31.3815 18.5845 31.1705 18.7955C30.9595 19.0065 30.6734 19.125 30.375 19.125H7.875C7.57663 19.125 7.29048 19.0065 7.07951 18.7955C6.86853 18.5845 6.75 18.2984 6.75 18C6.75 17.7016 6.86853 17.4155 7.07951 17.2045C7.29048 16.9935 7.57663 16.875 7.875 16.875Z" fill="#484848"/>
<path d="M7.875 16.875H30.375C30.6734 16.875 30.9595 16.9935 31.1705 17.2045C31.3815 17.4155 31.5 17.7016 31.5 18C31.5 18.2984 31.3815 18.5845 31.1705 18.7955C30.9595 19.0065 30.6734 19.125 30.375 19.125H7.875C7.57663 19.125 7.29048 19.0065 7.07951 18.7955C6.86853 18.5845 6.75 18.2984 6.75 18C6.75 17.7016 6.86853 17.4155 7.07951 17.2045C7.29048 16.9935 7.57663 16.875 7.875 16.875Z" fill="black" fill-opacity="0.2"/>
<path d="M8.34081 18L17.6716 27.3285C17.8828 27.5397 18.0015 27.8262 18.0015 28.125C18.0015 28.4237 17.8828 28.7102 17.6716 28.9215C17.4603 29.1327 17.1738 29.2514 16.8751 29.2514C16.5763 29.2514 16.2898 29.1327 16.0786 28.9215L5.95356 18.7965C5.84879 18.692 5.76567 18.5678 5.70895 18.4312C5.65224 18.2945 5.62305 18.148 5.62305 18C5.62305 17.852 5.65224 17.7055 5.70895 17.5688C5.76567 17.4321 5.84879 17.308 5.95356 17.2035L16.0786 7.07849C16.2898 6.86724 16.5763 6.74857 16.8751 6.74857C17.1738 6.74857 17.4603 6.86724 17.6716 7.07849C17.8828 7.28973 18.0015 7.57624 18.0015 7.87499C18.0015 8.17373 17.8828 8.46024 17.6716 8.67149L8.34081 18Z" fill="#484848"/>
<path d="M8.34081 18L17.6716 27.3285C17.8828 27.5397 18.0015 27.8262 18.0015 28.125C18.0015 28.4237 17.8828 28.7102 17.6716 28.9215C17.4603 29.1327 17.1738 29.2514 16.8751 29.2514C16.5763 29.2514 16.2898 29.1327 16.0786 28.9215L5.95356 18.7965C5.84879 18.692 5.76567 18.5678 5.70895 18.4312C5.65224 18.2945 5.62305 18.148 5.62305 18C5.62305 17.852 5.65224 17.7055 5.70895 17.5688C5.76567 17.4321 5.84879 17.308 5.95356 17.2035L16.0786 7.07849C16.2898 6.86724 16.5763 6.74857 16.8751 6.74857C17.1738 6.74857 17.4603 6.86724 17.6716 7.07849C17.8828 7.28973 18.0015 7.57624 18.0015 7.87499C18.0015 8.17373 17.8828 8.46024 17.6716 8.67149L8.34081 18Z" fill="black" fill-opacity="0.2"/>
</svg>
