<svg width="53" height="53" viewBox="0 0 53 53" fill="none" xmlns="http://www.w3.org/2000/svg">
<path fill-rule="evenodd" clip-rule="evenodd" d="M5.375 11.3333C5.375 8.04264 8.04264 5.375 11.3333 5.375H15.125C16.0225 5.375 16.75 6.10254 16.75 7C16.75 7.89746 16.0225 8.625 15.125 8.625H11.3333C9.83755 8.625 8.625 9.83755 8.625 11.3333V15.125C8.625 16.0225 7.89746 16.75 7 16.75C6.10254 16.75 5.375 16.0225 5.375 15.125V11.3333ZM41.6667 8.625H37.875C36.9775 8.625 36.25 7.89746 36.25 7C36.25 6.10254 36.9775 5.375 37.875 5.375H41.6667C44.9574 5.375 47.625 8.04264 47.625 11.3333V15.125C47.625 16.0225 46.8975 16.75 46 16.75C45.1025 16.75 44.375 16.0225 44.375 15.125V11.3333C44.375 9.83755 43.1625 8.625 41.6667 8.625ZM7 36.25C7.89746 36.25 8.625 36.9775 8.625 37.875V41.6667C8.625 43.1625 9.83755 44.375 11.3333 44.375H15.125C16.0225 44.375 16.75 45.1025 16.75 46C16.75 46.8975 16.0225 47.625 15.125 47.625H11.3333C8.04264 47.625 5.375 44.9574 5.375 41.6667V37.875C5.375 36.9775 6.10254 36.25 7 36.25ZM44.375 41.6667V37.875C44.375 36.9775 45.1025 36.25 46 36.25C46.8975 36.25 47.625 36.9775 47.625 37.875V41.6667C47.625 44.9574 44.9574 47.625 41.6667 47.625H37.875C36.9775 47.625 36.25 46.8975 36.25 46C36.25 45.1025 36.9775 44.375 37.875 44.375H41.6667C43.1625 44.375 44.375 43.1625 44.375 41.6667ZM37.3333 20.6094C37.3333 21.5068 36.6058 22.2344 35.7083 22.2344H17.2917C16.3942 22.2344 15.6667 21.5068 15.6667 20.6094C15.6667 19.7119 16.3942 18.9844 17.2917 18.9844H35.7083C36.6058 18.9844 37.3333 19.7119 37.3333 20.6094Z" fill="#008E18"/>
<path d="M17.2917 27.7188H35.7083C36.6058 27.7188 37.3333 26.9912 37.3333 26.0938C37.3333 25.1963 36.6058 24.4688 35.7083 24.4688H17.2917C16.3942 24.4688 15.6667 25.1963 15.6667 26.0938C15.6667 26.9912 16.3942 27.7188 17.2917 27.7188Z" fill="#008E18"/>
<path d="M17.2917 33.4062H27.7865C28.6839 33.4062 29.4115 32.6787 29.4115 31.7812C29.4115 30.8838 28.6839 30.1562 27.7865 30.1562H17.2917C16.3942 30.1562 15.6667 30.8838 15.6667 31.7812C15.6667 32.6787 16.3942 33.4062 17.2917 33.4062Z" fill="#008E18"/>
</svg>
