<svg width="53" height="53" viewBox="0 0 53 53" fill="none" xmlns="http://www.w3.org/2000/svg">
<path d="M26.4998 34.0831C31.2881 34.0831 35.1665 30.2048 35.1665 25.4165V13.4998C35.1665 8.71146 31.2881 4.83313 26.4998 4.83313C21.7115 4.83313 17.8331 8.71146 17.8331 13.4998V25.4165C17.8331 30.2048 21.7115 34.0831 26.4998 34.0831Z" stroke="#008E18" stroke-width="1.41231" stroke-linecap="round" stroke-linejoin="round"/>
<path d="M9.92517 21.4084V25.0918C9.92517 34.2351 17.3568 41.6668 26.5002 41.6668C35.6435 41.6668 43.0752 34.2351 43.0752 25.0918V21.4084" stroke="#008E18" stroke-width="1.41231" stroke-linecap="round" stroke-linejoin="round"/>
<path d="M23.4883 14.4321C25.4383 13.7171 27.5616 13.7171 29.5116 14.4321" stroke="#008E18" stroke-width="1.41231" stroke-linecap="round" stroke-linejoin="round"/>
<path d="M24.7668 19.0249C25.9152 18.7215 27.1068 18.7215 28.2552 19.0249" stroke="#008E18" stroke-width="1.41231" stroke-linecap="round" stroke-linejoin="round"/>
<path d="M26.5 41.6669V48.1669" stroke="#008E18" stroke-width="1.41231" stroke-linecap="round" stroke-linejoin="round"/>
</svg>
